<svg width="180" height="180" xmlns="http://www.w3.org/2000/svg" viewBox="0 0 1024 1024"><path d="M 352.0 130.0 C 329.8 137.7, 304.5 149.0, 283.0 162.0 C 261.5 175.0, 241.3 190.3, 223.0 208.0 C 204.7 225.7, 187.2 245.5, 173.0 268.0 C 158.8 290.5, 146.2 319.5, 138.0 343.0 C 129.8 366.5, 126.3 390.0, 124.0 409.0 C 121.7 428.0, 120.7 435.7, 124.0 457.0 C 127.3 478.3, 140.0 507.8, 144.0 537.0 C 148.0 566.2, 143.3 604.3, 148.0 632.0 C 152.7 659.7, 160.8 679.7, 172.0 703.0 C 183.2 726.3, 200.2 752.7, 215.0 772.0 C 229.8 791.3, 245.3 805.7, 261.0 819.0 C 276.7 832.3, 285.3 840.2, 309.0 852.0 C 332.7 863.8, 374.0 880.5, 403.0 890.0 C 432.0 899.5, 455.2 905.5, 483.0 909.0 C 510.8 912.5, 544.7 912.7, 570.0 911.0 C 595.3 909.3, 614.2 904.5, 635.0 899.0 C 655.8 893.5, 674.2 887.8, 695.0 878.0 C 715.8 868.2, 739.7 855.5, 760.0 840.0 C 780.3 824.5, 800.5 804.5, 817.0 785.0 C 833.5 765.5, 847.2 745.5, 859.0 723.0 C 870.8 700.5, 881.3 672.8, 888.0 650.0 C 894.7 627.2, 897.5 608.2, 899.0 586.0 C 900.5 563.8, 901.2 542.5, 897.0 517.0 C 892.8 491.5, 879.2 459.3, 874.0 433.0 C 868.8 406.7, 870.5 380.0, 866.0 359.0 C 861.5 338.0, 854.7 323.2, 847.0 307.0 C 839.3 290.8, 831.7 277.3, 820.0 262.0 C 808.3 246.7, 792.5 228.7, 777.0 215.0 C 761.5 201.3, 743.8 189.7, 727.0 180.0 C 710.2 170.3, 716.3 168.0, 676.0 157.0 C 635.7 146.0, 528.3 120.8, 485.0 114.0 C 441.7 107.2, 438.2 113.3, 416.0 116.0 C 393.8 118.7, 374.2 122.3, 352.0 130.0 Z M 575.0 178.0 C 593.7 180.7, 603.8 191.5, 619.0 201.0 C 634.2 210.5, 651.0 222.2, 666.0 235.0 C 681.0 247.8, 696.0 263.0, 709.0 278.0 C 722.0 293.0, 734.7 310.8, 744.0 325.0 C 753.3 339.2, 757.3 345.0, 765.0 363.0 C 772.7 381.0, 783.3 402.2, 790.0 433.0 C 796.7 463.8, 805.8 521.5, 805.0 548.0 C 804.2 574.5, 793.8 576.0, 785.0 592.0 C 776.2 608.0, 770.2 621.2, 752.0 644.0 C 733.8 666.8, 703.2 704.5, 676.0 729.0 C 648.8 753.5, 616.2 775.8, 589.0 791.0 C 561.8 806.2, 535.7 818.5, 513.0 820.0 C 490.3 821.5, 471.7 807.7, 453.0 800.0 C 434.3 792.3, 425.5 790.0, 401.0 774.0 C 376.5 758.0, 328.3 722.3, 306.0 704.0 C 283.7 685.7, 282.0 682.3, 267.0 664.0 C 252.0 645.7, 228.7 613.7, 216.0 594.0 C 203.3 574.3, 197.7 562.2, 191.0 546.0 C 184.3 529.8, 173.3 518.5, 176.0 497.0 C 178.7 475.5, 196.2 439.8, 207.0 417.0 C 217.8 394.2, 230.3 375.7, 241.0 360.0 C 251.7 344.3, 254.5 339.7, 271.0 323.0 C 287.5 306.3, 321.2 275.3, 340.0 260.0 C 358.8 244.7, 364.0 241.3, 384.0 231.0 C 404.0 220.7, 439.5 205.7, 460.0 198.0 C 480.5 190.3, 487.8 188.3, 507.0 185.0 C 526.2 181.7, 556.3 175.3, 575.0 178.0 Z M 874.0 459.0 C 875.3 474.8, 878.8 532.5, 879.0 555.0 C 879.2 577.5, 877.7 579.0, 875.0 594.0 C 872.3 609.0, 867.8 629.0, 863.0 645.0 C 858.2 661.0, 852.7 675.3, 846.0 690.0 C 839.3 704.7, 832.2 718.8, 823.0 733.0 C 813.8 747.2, 801.5 763.0, 791.0 775.0 C 780.5 787.0, 775.8 793.2, 760.0 805.0 C 744.2 816.8, 720.3 834.8, 696.0 846.0 C 671.7 857.2, 635.5 867.0, 614.0 872.0 C 592.5 877.0, 577.3 874.5, 567.0 876.0 C 556.7 877.5, 565.7 879.8, 552.0 881.0 C 538.3 882.2, 500.2 883.0, 485.0 883.0 C 469.8 883.0, 473.0 883.5, 461.0 881.0 C 449.0 878.5, 409.5 871.5, 413.0 868.0 C 416.5 864.5, 457.7 865.3, 482.0 860.0 C 506.3 854.7, 535.0 845.7, 559.0 836.0 C 583.0 826.3, 600.8 817.7, 626.0 802.0 C 651.2 786.3, 685.7 762.7, 710.0 742.0 C 734.3 721.3, 752.5 702.3, 772.0 678.0 C 791.5 653.7, 812.5 621.8, 827.0 596.0 C 841.5 570.2, 851.7 545.7, 859.0 523.0 C 866.3 500.3, 868.5 470.7, 871.0 460.0 C 873.5 449.3, 872.7 443.2, 874.0 459.0 Z M 487.0 150.0 C 484.7 152.5, 467.5 154.2, 450.0 161.0 C 432.5 167.8, 402.2 180.3, 382.0 191.0 C 361.8 201.7, 344.2 214.0, 329.0 225.0 C 313.8 236.0, 305.2 243.3, 291.0 257.0 C 276.8 270.7, 258.3 289.2, 244.0 307.0 C 229.7 324.8, 215.5 346.2, 205.0 364.0 C 194.5 381.8, 187.0 399.2, 181.0 414.0 C 175.0 428.8, 172.0 444.8, 169.0 453.0 C 166.0 461.2, 164.5 467.0, 163.0 463.0 C 161.5 459.0, 160.3 440.3, 160.0 429.0 C 159.7 417.7, 160.3 404.3, 161.0 395.0 C 161.7 385.7, 161.3 384.3, 164.0 373.0 C 166.7 361.7, 169.8 344.2, 177.0 327.0 C 184.2 309.8, 196.0 286.7, 207.0 270.0 C 218.0 253.3, 227.8 241.3, 243.0 227.0 C 258.2 212.7, 277.8 195.8, 298.0 184.0 C 318.2 172.2, 344.5 162.3, 364.0 156.0 C 383.5 149.7, 398.3 147.7, 415.0 146.0 C 431.7 144.3, 452.0 145.3, 464.0 146.0 C 476.0 146.7, 489.3 147.5, 487.0 150.0 Z M 170.0 586.0 C 169.7 578.7, 171.3 584.3, 173.0 587.0 C 174.7 589.7, 170.5 587.8, 180.0 602.0 C 189.5 616.2, 216.5 655.0, 230.0 672.0 C 243.5 689.0, 248.0 692.0, 261.0 704.0 C 274.0 716.0, 294.7 733.5, 308.0 744.0 C 321.3 754.5, 326.3 758.0, 341.0 767.0 C 355.7 776.0, 380.0 790.0, 396.0 798.0 C 412.0 806.0, 422.5 809.8, 437.0 815.0 C 451.5 820.2, 480.5 825.8, 483.0 829.0 C 485.5 832.2, 465.8 833.2, 452.0 834.0 C 438.2 834.8, 413.8 834.8, 400.0 834.0 C 386.2 833.2, 382.5 832.7, 369.0 829.0 C 355.5 825.3, 334.5 819.0, 319.0 812.0 C 303.5 805.0, 289.5 796.8, 276.0 787.0 C 262.5 777.2, 248.0 763.5, 238.0 753.0 C 228.0 742.5, 222.5 733.7, 216.0 724.0 C 209.5 714.3, 205.8 710.5, 199.0 695.0 C 192.2 679.5, 179.8 649.2, 175.0 631.0 C 170.2 612.8, 170.3 593.3, 170.0 586.0 Z M 658.0 190.0 C 666.3 193.2, 694.3 204.8, 707.0 211.0 C 719.7 217.2, 726.0 221.5, 734.0 227.0 C 742.0 232.5, 747.0 236.2, 755.0 244.0 C 763.0 251.8, 774.8 265.0, 782.0 274.0 C 789.2 283.0, 793.0 289.5, 798.0 298.0 C 803.0 306.5, 807.0 312.2, 812.0 325.0 C 817.0 337.8, 824.8 363.3, 828.0 375.0 C 831.2 386.7, 830.3 383.7, 831.0 395.0 C 831.7 406.3, 832.3 433.8, 832.0 443.0 C 831.7 452.2, 829.5 445.0, 829.0 450.0 C 828.5 455.0, 831.3 460.7, 829.0 473.0 C 826.7 485.3, 817.7 515.7, 815.0 524.0 C 812.3 532.3, 813.2 526.8, 813.0 523.0 C 812.8 519.2, 815.3 516.3, 814.0 501.0 C 812.7 485.7, 808.2 449.2, 805.0 431.0 C 801.8 412.8, 800.2 407.7, 795.0 392.0 C 789.8 376.3, 782.2 354.5, 774.0 337.0 C 765.8 319.5, 753.7 299.7, 746.0 287.0 C 738.3 274.3, 735.2 270.3, 728.0 261.0 C 720.8 251.7, 711.0 239.7, 703.0 231.0 C 695.0 222.3, 687.7 215.5, 680.0 209.0 C 672.3 202.5, 660.7 195.2, 657.0 192.0 C 653.3 188.8, 649.7 186.8, 658.0 190.0 Z" fill="#2d295a" fill-rule="evenodd"/></svg>
